<svg width="216" height="91" viewBox="0 0 216 91" fill="none" xmlns="http://www.w3.org/2000/svg">
<path d="M25.58 36.36C22.94 36.36 20.672 35.832 18.776 34.776C16.904 33.696 15.464 32.184 14.456 30.24C13.448 28.272 12.944 25.956 12.944 23.292C12.944 20.628 13.448 18.324 14.456 16.38C15.464 14.436 16.904 12.936 18.776 11.88C20.672 10.8 22.94 10.26 25.58 10.26C26.9 10.26 28.196 10.428 29.468 10.764C30.74 11.1 31.856 11.58 32.816 12.204C33.44 12.612 33.812 13.104 33.932 13.68C34.052 14.232 33.98 14.748 33.716 15.228C33.452 15.684 33.056 15.996 32.528 16.164C32 16.308 31.412 16.164 30.764 15.732C30.02 15.252 29.216 14.904 28.352 14.688C27.488 14.472 26.612 14.364 25.724 14.364C23.156 14.364 21.2 15.144 19.856 16.704C18.512 18.24 17.84 20.436 17.84 23.292C17.84 26.148 18.512 28.356 19.856 29.916C21.2 31.476 23.156 32.256 25.724 32.256C26.636 32.256 27.536 32.148 28.424 31.932C29.312 31.692 30.152 31.332 30.944 30.852C31.592 30.444 32.168 30.312 32.672 30.456C33.176 30.6 33.548 30.9 33.788 31.356C34.052 31.788 34.136 32.268 34.04 32.796C33.944 33.324 33.62 33.792 33.068 34.2C32.108 34.896 30.956 35.436 29.612 35.82C28.292 36.18 26.948 36.36 25.58 36.36ZM42.0208 36C40.4608 36 39.6808 35.208 39.6808 33.624V12.852C39.6808 11.292 40.4488 10.512 41.9848 10.512C43.5208 10.512 44.2888 11.292 44.2888 12.852V32.076H54.7288C56.0728 32.076 56.7448 32.724 56.7448 34.02C56.7448 35.34 56.0728 36 54.7288 36H42.0208ZM63.7836 36C62.1516 36 61.3356 35.184 61.3356 33.552V13.068C61.3356 11.436 62.1516 10.62 63.7836 10.62H76.6356C77.8836 10.62 78.5076 11.22 78.5076 12.42C78.5076 13.668 77.8836 14.292 76.6356 14.292H65.7636V21.276H75.8436C77.0916 21.276 77.7156 21.888 77.7156 23.112C77.7156 24.336 77.0916 24.948 75.8436 24.948H65.7636V32.328H76.6356C77.8836 32.328 78.5076 32.94 78.5076 34.164C78.5076 35.388 77.8836 36 76.6356 36H63.7836ZM84.051 36.288C83.211 36.288 82.611 36 82.251 35.424C81.891 34.848 81.903 34.152 82.287 33.336L91.791 12.276C92.103 11.58 92.475 11.088 92.907 10.8C93.363 10.488 93.879 10.332 94.455 10.332C95.007 10.332 95.499 10.488 95.931 10.8C96.387 11.088 96.771 11.58 97.083 12.276L106.623 33.336C107.007 34.176 107.031 34.884 106.695 35.46C106.359 36.012 105.783 36.288 104.967 36.288C104.295 36.288 103.767 36.132 103.383 35.82C103.023 35.484 102.699 34.98 102.411 34.308L100.611 30.132H88.227L86.463 34.308C86.151 35.004 85.827 35.508 85.491 35.82C85.155 36.132 84.675 36.288 84.051 36.288ZM94.383 15.624L89.811 26.46H99.027L94.455 15.624H94.383ZM114.188 36.288C112.748 36.288 112.028 35.544 112.028 34.056V12.636C112.028 11.892 112.208 11.328 112.568 10.944C112.952 10.536 113.444 10.332 114.044 10.332C114.596 10.332 115.004 10.44 115.268 10.656C115.556 10.848 115.892 11.184 116.276 11.664L129.128 28.332V12.528C129.128 11.064 129.848 10.332 131.288 10.332C132.704 10.332 133.412 11.064 133.412 12.528V34.128C133.412 34.8 133.244 35.328 132.908 35.712C132.572 36.096 132.116 36.288 131.54 36.288C130.988 36.288 130.544 36.18 130.208 35.964C129.896 35.748 129.548 35.4 129.164 34.92L116.312 18.216V34.056C116.312 35.544 115.604 36.288 114.188 36.288ZM142.702 36.288C141.166 36.288 140.398 35.496 140.398 33.912V12.708C140.398 11.124 141.166 10.332 142.702 10.332C144.238 10.332 145.006 11.124 145.006 12.708V33.912C145.006 35.496 144.238 36.288 142.702 36.288ZM154.158 36.288C152.718 36.288 151.998 35.544 151.998 34.056V12.636C151.998 11.892 152.178 11.328 152.538 10.944C152.922 10.536 153.414 10.332 154.014 10.332C154.566 10.332 154.974 10.44 155.238 10.656C155.526 10.848 155.862 11.184 156.246 11.664L169.098 28.332V12.528C169.098 11.064 169.818 10.332 171.258 10.332C172.674 10.332 173.382 11.064 173.382 12.528V34.128C173.382 34.8 173.214 35.328 172.878 35.712C172.542 36.096 172.086 36.288 171.51 36.288C170.958 36.288 170.514 36.18 170.178 35.964C169.866 35.748 169.518 35.4 169.134 34.92L156.282 18.216V34.056C156.282 35.544 155.574 36.288 154.158 36.288ZM192.572 36.36C189.764 36.36 187.388 35.832 185.444 34.776C183.524 33.72 182.06 32.22 181.052 30.276C180.044 28.332 179.54 26.028 179.54 23.364C179.54 20.676 180.056 18.36 181.088 16.416C182.12 14.448 183.608 12.936 185.552 11.88C187.496 10.8 189.824 10.26 192.536 10.26C193.88 10.26 195.224 10.428 196.568 10.764C197.936 11.076 199.22 11.616 200.42 12.384C200.948 12.696 201.248 13.116 201.32 13.644C201.416 14.148 201.344 14.628 201.104 15.084C200.864 15.54 200.504 15.864 200.024 16.056C199.544 16.224 199.016 16.14 198.44 15.804C197.528 15.276 196.604 14.892 195.668 14.652C194.732 14.412 193.688 14.292 192.536 14.292C189.848 14.292 187.808 15.072 186.416 16.632C185.048 18.192 184.364 20.436 184.364 23.364C184.364 26.316 185.072 28.56 186.488 30.096C187.904 31.632 190.004 32.4 192.788 32.4C193.58 32.4 194.384 32.34 195.2 32.22C196.04 32.076 196.868 31.872 197.684 31.608V25.704H193.724C192.476 25.704 191.852 25.128 191.852 23.976C191.852 22.848 192.476 22.284 193.724 22.284H199.664C200.912 22.284 201.536 22.908 201.536 24.156V32.904C201.536 34.008 201.104 34.716 200.24 35.028C199.184 35.412 197.972 35.736 196.604 36C195.236 36.24 193.892 36.36 192.572 36.36Z" fill="#5F40D3"/>
<path d="M7.52 74C4.512 74 3.008 72.5117 3.008 69.535V45.33C3.008 42.3533 4.512 40.865 7.52 40.865H18.988C22.56 40.865 25.3173 41.6483 27.26 43.215C29.234 44.7503 30.221 46.8183 30.221 49.419C30.221 51.1423 29.7823 52.6463 28.905 53.931C28.059 55.2157 26.8683 56.1713 25.333 56.798C27.1817 57.362 28.6073 58.3177 29.61 59.665C30.6127 60.981 31.114 62.626 31.114 64.6C31.114 67.514 30.0643 69.817 27.965 71.509C25.897 73.1697 23.0613 74 19.458 74H7.52ZM11.28 54.025H17.437C19.0037 54.025 20.1473 53.743 20.868 53.179C21.62 52.615 21.996 51.7533 21.996 50.594C21.996 49.4347 21.62 48.5887 20.868 48.056C20.1473 47.492 19.0037 47.21 17.437 47.21H11.28V54.025ZM11.28 67.655H18.283C19.881 67.655 21.0403 67.3573 21.761 66.762C22.513 66.1353 22.889 65.211 22.889 63.989C22.889 62.767 22.513 61.8583 21.761 61.263C21.0403 60.6677 19.881 60.37 18.283 60.37H11.28V67.655ZM43.623 74.423C42.2443 74.423 41.179 74.047 40.427 73.295C39.675 72.543 39.299 71.462 39.299 70.052V45.236C39.299 43.826 39.675 42.745 40.427 41.993C41.179 41.241 42.26 40.865 43.67 40.865H55.232C58.992 40.865 61.8903 41.7893 63.927 43.638C65.995 45.4553 67.029 47.9933 67.029 51.252C67.029 53.7273 66.4023 55.811 65.149 57.503C63.927 59.1637 62.141 60.323 59.791 60.981C61.5456 61.451 62.9556 62.6573 64.021 64.6L66.371 68.83C66.8723 69.77 67.0916 70.663 67.029 71.509C66.9976 72.355 66.6686 73.06 66.042 73.624C65.4153 74.1567 64.491 74.423 63.269 74.423C62.047 74.423 61.0443 74.188 60.261 73.718C59.509 73.2167 58.8353 72.4177 58.24 71.321L53.963 63.472C53.587 62.7827 53.1013 62.3127 52.506 62.062C51.942 61.78 51.284 61.639 50.532 61.639H47.947V70.052C47.947 71.462 47.571 72.543 46.819 73.295C46.0983 74.047 45.033 74.423 43.623 74.423ZM47.947 55.529H53.681C57.0963 55.529 58.804 54.1817 58.804 51.487C58.804 48.8237 57.0963 47.492 53.681 47.492H47.947V55.529ZM91.5241 74.517C88.1714 74.517 85.2261 73.812 82.6881 72.402C80.1814 70.9607 78.2231 68.9553 76.8131 66.386C75.4031 63.8167 74.6981 60.8243 74.6981 57.409C74.6981 53.9623 75.3874 50.97 76.7661 48.432C78.1761 45.8627 80.1501 43.873 82.6881 42.463C85.2261 41.053 88.1714 40.348 91.5241 40.348C94.8767 40.348 97.8064 41.053 100.313 42.463C102.851 43.873 104.825 45.8627 106.235 48.432C107.645 50.97 108.35 53.9623 108.35 57.409C108.35 60.8243 107.645 63.8167 106.235 66.386C104.825 68.9553 102.851 70.9607 100.313 72.402C97.8064 73.812 94.8767 74.517 91.5241 74.517ZM91.5241 67.279C93.9681 67.279 95.8794 66.4173 97.2581 64.694C98.6681 62.9393 99.3731 60.511 99.3731 57.409C99.3731 54.307 98.6837 51.8943 97.3051 50.171C95.9264 48.4477 93.9994 47.586 91.5241 47.586C89.0487 47.586 87.1217 48.4477 85.7431 50.171C84.3644 51.8943 83.6751 54.307 83.6751 57.409C83.6751 60.511 84.3644 62.9393 85.7431 64.694C87.1217 66.4173 89.0487 67.279 91.5241 67.279ZM121.07 74.423C119.692 74.423 118.626 74.047 117.874 73.295C117.122 72.543 116.746 71.462 116.746 70.052V44.813C116.746 43.403 117.122 42.322 117.874 41.57C118.626 40.818 119.692 40.442 121.07 40.442C122.449 40.442 123.514 40.818 124.266 41.57C125.018 42.322 125.394 43.403 125.394 44.813V55.059H125.488L136.909 42.463C137.505 41.8363 138.131 41.3507 138.789 41.006C139.479 40.63 140.246 40.442 141.092 40.442C142.377 40.442 143.317 40.7867 143.912 41.476C144.508 42.134 144.774 42.9173 144.711 43.826C144.649 44.7347 144.288 45.5493 143.63 46.27L133.854 56.61L144.194 68.313C145.009 69.2217 145.416 70.146 145.416 71.086C145.416 72.026 145.087 72.825 144.429 73.483C143.771 74.1097 142.831 74.423 141.609 74.423C140.544 74.423 139.682 74.2193 139.024 73.812C138.366 73.3733 137.677 72.731 136.956 71.885L125.488 59.054H125.394V70.052C125.394 71.462 125.018 72.543 124.266 73.295C123.546 74.047 122.48 74.423 121.07 74.423ZM158.008 74C155 74 153.496 72.5117 153.496 69.535V45.33C153.496 42.3533 155 40.865 158.008 40.865H173.941C176.197 40.865 177.325 41.9617 177.325 44.155C177.325 46.411 176.197 47.539 173.941 47.539H161.768V53.837H172.907C175.163 53.837 176.291 54.9493 176.291 57.174C176.291 59.3987 175.163 60.511 172.907 60.511H161.768V67.326H173.941C176.197 67.326 177.325 68.4383 177.325 70.663C177.325 72.8877 176.197 74 173.941 74H158.008ZM189.98 74.423C188.602 74.423 187.536 74.047 186.784 73.295C186.032 72.543 185.656 71.462 185.656 70.052V45.236C185.656 43.826 186.032 42.745 186.784 41.993C187.536 41.241 188.617 40.865 190.027 40.865H201.589C205.349 40.865 208.248 41.7893 210.284 43.638C212.352 45.4553 213.386 47.9933 213.386 51.252C213.386 53.7273 212.76 55.811 211.506 57.503C210.284 59.1637 208.498 60.323 206.148 60.981C207.903 61.451 209.313 62.6573 210.378 64.6L212.728 68.83C213.23 69.77 213.449 70.663 213.386 71.509C213.355 72.355 213.026 73.06 212.399 73.624C211.773 74.1567 210.848 74.423 209.626 74.423C208.404 74.423 207.402 74.188 206.618 73.718C205.866 73.2167 205.193 72.4177 204.597 71.321L200.32 63.472C199.944 62.7827 199.459 62.3127 198.863 62.062C198.299 61.78 197.641 61.639 196.889 61.639H194.304V70.052C194.304 71.462 193.928 72.543 193.176 73.295C192.456 74.047 191.39 74.423 189.98 74.423ZM194.304 55.529H200.038C203.454 55.529 205.161 54.1817 205.161 51.487C205.161 48.8237 203.454 47.492 200.038 47.492H194.304V55.529Z" fill="#5F40D3"/>
</svg>
